<svg xmlns="http://www.w3.org/2000/svg" width="77.196" height="76.972" viewBox="0 0 77.196 76.972">
  <g id="noun-sun-7379721" transform="translate(-2.917 -3.137)">
    <path id="Path_6" data-name="Path 6" d="M41.64,20.063A21.576,21.576,0,1,0,63.216,41.639,21.6,21.6,0,0,0,41.64,20.063Zm0,40.877a19.3,19.3,0,1,1,19.3-19.3A19.314,19.314,0,0,1,41.64,60.94ZM30.807,5.6a1.13,1.13,0,1,1,2.181-.591l2.43,9.082a1.135,1.135,0,0,1-.8,1.386,1.336,1.336,0,0,1-.294.045,1.138,1.138,0,0,1-1.089-.84L30.81,5.6ZM14.23,15.841a1.14,1.14,0,0,1,1.613-1.613L22.5,20.884a1.126,1.126,0,0,1,0,1.613,1.146,1.146,0,0,1-.8.342,1.107,1.107,0,0,1-.8-.342l-6.655-6.655ZM4.215,31.6a1.128,1.128,0,0,1,1.386-.8l9.082,2.43a1.128,1.128,0,0,1,.8,1.386,1.14,1.14,0,0,1-1.089.84.674.674,0,0,1-.294-.045l-9.082-2.43a1.128,1.128,0,0,1-.8-1.386Zm10.469,18.44L5.6,52.471a2.082,2.082,0,0,1-.294.045,1.133,1.133,0,0,1-.294-2.226L14.1,47.86a1.13,1.13,0,0,1,.591,2.181ZM22.5,60.784a1.126,1.126,0,0,1,0,1.613L15.84,69.052a1.146,1.146,0,0,1-.8.342,1.107,1.107,0,0,1-.8-.342,1.126,1.126,0,0,1,0-1.613L20.9,60.784a1.126,1.126,0,0,1,1.613,0Zm12.947,8.4-2.43,9.082a1.14,1.14,0,0,1-1.089.84.674.674,0,0,1-.294-.045,1.128,1.128,0,0,1-.8-1.386l2.43-9.082a1.13,1.13,0,1,1,2.181.591Zm17.031,8.492a1.135,1.135,0,0,1-.8,1.386,1.336,1.336,0,0,1-.294.045,1.138,1.138,0,0,1-1.089-.84l-2.43-9.082a1.13,1.13,0,0,1,2.181-.591l2.43,9.082ZM69.05,67.437a1.126,1.126,0,0,1,0,1.613,1.146,1.146,0,0,1-.8.342,1.107,1.107,0,0,1-.8-.342L60.8,62.394a1.14,1.14,0,1,1,1.613-1.613l6.655,6.655Zm10.015-15.76a1.14,1.14,0,0,1-1.089.84.674.674,0,0,1-.294-.045L68.6,50.042a1.128,1.128,0,0,1-.8-1.386,1.146,1.146,0,0,1,1.386-.8l9.082,2.43a1.128,1.128,0,0,1,.8,1.386ZM68.6,33.237l9.082-2.43a1.13,1.13,0,0,1,.591,2.181l-9.082,2.43a2.082,2.082,0,0,1-.294.045,1.133,1.133,0,0,1-.294-2.226ZM60.785,22.494a1.126,1.126,0,0,1,0-1.613l6.655-6.655a1.14,1.14,0,0,1,1.613,1.613L62.4,22.494a1.146,1.146,0,0,1-.8.342,1.107,1.107,0,0,1-.8-.342Zm-12.947-8.4,2.43-9.082A1.13,1.13,0,0,1,52.45,5.6l-2.43,9.082a1.14,1.14,0,0,1-1.089.84.674.674,0,0,1-.294-.045,1.128,1.128,0,0,1-.8-1.386Z" fill="#061a3a" stroke="#061a3a" stroke-width="2"/>
  </g>
</svg>
