<svg xmlns="http://www.w3.org/2000/svg" width="66.815" height="66.798" viewBox="0 0 66.815 66.798">
  <g id="noun-night-mode-3156994" transform="translate(-4.5 -4.72)">
    <path id="Path_1" data-name="Path 1" d="M34.156,5.223q-.069,0-.139.012A33.056,33.056,0,0,0,5,37.982s0,0,0,0A33.062,33.062,0,0,0,38.034,71.019h0A33.055,33.055,0,0,0,70.8,42a1.835,1.835,0,0,0-2.834-1.754A23.223,23.223,0,0,1,35.771,8.067a1.835,1.835,0,0,0-1.615-2.844Zm-3.126,4.4a26.689,26.689,0,0,0-2.784,11.229s0,0,0,0A26.944,26.944,0,0,0,55.163,47.772h0a26.692,26.692,0,0,0,11.241-2.786,29.283,29.283,0,0,1-57.735-7v0A29.258,29.258,0,0,1,31.03,9.625Z" fill="#061a3a" stroke="#061a3a" stroke-width="1"/>
  </g>
</svg>
