<svg xmlns="http://www.w3.org/2000/svg" width="111.225" height="58.573" viewBox="0 0 111.225 58.573">
  <g id="noun-school-bus-7220970" transform="translate(-17.531 -32.906)">
    <path id="Path_2" data-name="Path 2" d="M122.548,56.686c-6.644-6.557-16.821-7.26-22.247-7.072a1.65,1.65,0,0,1-1.679-1.184l-1.9-5.895a13.882,13.882,0,0,0-13.242-9.628H33a15.486,15.486,0,0,0-15.47,15.47V78.2H22.67V48.376A10.346,10.346,0,0,1,33,38.045H83.479a8.723,8.723,0,0,1,8.344,6.082l1.9,5.895a6.9,6.9,0,0,0,6.731,4.731c4.623-.134,13.188.395,18.481,5.6,3.205,3.172,4.777,7.742,4.677,13.583a1.729,1.729,0,0,1-1.713,1.713H111.6v5.139h10.3a6.906,6.906,0,0,0,6.852-6.751c.134-7.313-1.954-13.141-6.2-17.336Z" transform="translate(0 0)" fill="#061a3a"/>
    <path id="Path_3" data-name="Path 3" d="M88.556,53.9a11.3,11.3,0,0,0-10.672,7.621H45.82a11.3,11.3,0,1,0,.529,5.146H77.367A11.3,11.3,0,1,0,88.568,53.9ZM35.129,71.354A6.169,6.169,0,1,1,41.3,65.185,6.175,6.175,0,0,1,35.129,71.354Zm53.427,0a6.169,6.169,0,1,1,6.169-6.169A6.175,6.175,0,0,1,88.556,71.354Z" transform="translate(4.497 14.965)" fill="#061a3a"/>
    <path id="Path_4" data-name="Path 4" d="M26.23,45.379H73.8v5.139H26.23Z" transform="translate(6.201 8.892)" fill="#061a3a"/>
  </g>
</svg>
