<svg xmlns="http://www.w3.org/2000/svg" width="84.531" height="65.797" viewBox="0 0 84.531 65.797">
  <g id="noun-week-887150" transform="translate(-14 -21.957)">
    <g id="Group_1" data-name="Group 1" transform="translate(14 21.957)">
      <path id="Path_5" data-name="Path 5" d="M34.876,21.971a2.348,2.348,0,0,0-2.091,2.385v3.522H21.044A7.081,7.081,0,0,0,14,34.922V80.71a7.081,7.081,0,0,0,7.044,7.044H91.487a7.081,7.081,0,0,0,7.044-7.044V34.922a7.081,7.081,0,0,0-7.044-7.044H79.747V24.356a2.349,2.349,0,1,0-4.7,0v3.522H37.481V24.356a2.348,2.348,0,0,0-2.6-2.385Zm-13.832,10.6h11.74V36.1a2.348,2.348,0,1,0,4.7,0V32.574H75.05V36.1a2.348,2.348,0,1,0,4.7,0V32.574h11.74a2.293,2.293,0,0,1,2.348,2.348v7.044H18.7V34.922A2.293,2.293,0,0,1,21.044,32.574ZM18.7,46.663H93.835V80.71a2.293,2.293,0,0,1-2.348,2.348H21.044A2.293,2.293,0,0,1,18.7,80.71Zm23.481,7.044A3.522,3.522,0,1,0,45.7,57.229,3.514,3.514,0,0,0,42.177,53.707Zm14.089,0a3.522,3.522,0,1,0,3.522,3.522A3.514,3.514,0,0,0,56.266,53.707Zm14.089,0a3.522,3.522,0,1,0,3.522,3.522A3.514,3.514,0,0,0,70.354,53.707Zm14.089,0a3.522,3.522,0,1,0,3.522,3.522A3.514,3.514,0,0,0,84.443,53.707ZM28.089,68.969a3.522,3.522,0,1,0,3.522,3.522A3.514,3.514,0,0,0,28.089,68.969Zm14.089,0A3.522,3.522,0,1,0,45.7,72.492,3.514,3.514,0,0,0,42.177,68.969Zm14.089,0a3.522,3.522,0,1,0,3.522,3.522A3.514,3.514,0,0,0,56.266,68.969Zm14.089,0a3.522,3.522,0,1,0,3.522,3.522A3.514,3.514,0,0,0,70.354,68.969Z" transform="translate(-14 -21.957)" fill="#061a3a"/>
    </g>
  </g>
</svg>
