<?xml version="1.0" encoding="UTF-8"?>
<svg id="Layer_1" data-name="Layer 1" xmlns="http://www.w3.org/2000/svg" viewBox="0 0 550.91 549.64">
  <defs>
    <style>
      .cls-1, .cls-2 {
        fill: none;
        stroke: #fff;
        stroke-miterlimit: 10;
        stroke-width: 15px;
      }

      .cls-3 {
        letter-spacing: -.03em;
      }

      .cls-3, .cls-4, .cls-5, .cls-6, .cls-7 {
        isolation: isolate;
      }

      .cls-3, .cls-8, .cls-5, .cls-6, .cls-7 {
        fill: #fff;
      }

      .cls-3, .cls-6 {
        font-size: 65.27px;
      }

      .cls-3, .cls-6, .cls-7 {
        font-family: SofiaProSoftBold, 'Sofia Pro Soft';
      }

      .cls-5 {
        font-family: MyriadPro-Regular, 'Myriad Pro';
      }

      .cls-5, .cls-7 {
        font-size: 72px;
      }

      .cls-2 {
        stroke-linecap: round;
      }
    </style>
  </defs>
  <g>
    <g>
      <path class="cls-1" d="M94.9,447.3c-31.8-39.55-50.83-89.8-50.83-144.49,0-127.44,103.31-230.74,230.74-230.74s230.74,103.31,230.74,230.74c0,54.69-19.03,104.95-50.83,144.49"/>
      <g>
        <g>
          <path class="cls-8" d="M186.61,230.48c-1.8-2.5-.79-10.1-1.27-13.67-2.97-22.2-26.4-30.06-32.04-47.88-3.3-10.43-.69-17.93,8.1-24.1,10.74-7.54,52.36-29.67,64.19-31.06,23.93-2.8,54.67-.98,78.99-.05,6.28.24,12.97-.55,19.18.19,11.18,1.34,35.64,14.1,46.38,19.81,16.66,8.86,34.78,16.23,24.62,38.63-7.59,16.74-25.42,21.66-29.77,42.88-1.39,6.78,1.06,18.03-8.62,17.08-13.59-1.34-19.9-25.51-20.67-36.7-.87-12.67,2.19-27.48.59-39.34-1.8-13.27-18.5-28.36-31.68-29.66-12.4-1.23-57.92-1.25-68.18,2.83-9.54,3.8-21.88,19.52-22.65,29.81-1.73,23.03,6.33,47.07-11.28,67.02-3.22,3.64-11.91,9.71-15.88,4.21h0ZM213,133.06c-1.55-.24-2.76.55-4.07,1.17-9.18,4.35-22.15,12.05-30.89,17.54-1.99,1.25-9.72,5.97-10.12,7.68-1.24,5.27,13.38,19.57,16.81,24.07,6.1,8.03,10.01,15.15,11.33,25.4,1.16-.21,1.62-1.46,2-2.43,5.58-14.17-.38-38.81,2.21-54.29,1.18-7.01,9.12-13.29,12.72-19.15h0ZM354.25,209.74c1.56-9.92,6.81-20,12.94-27.83,4.2-5.36,21.54-19.52,12.37-26.14l-39.83-21.91c-.53.52,7.39,10.79,8.2,12.37,7.35,14.32.37,40.11,2.29,56.64.13,1.08,2.36,8.78,4.03,6.86h0Z"/>
          <path class="cls-8" d="M319.55,212.16c3.69.42,11.22-1.53,13.13,2.61,1.57,9.22.8,18.3.52,27.58-5.54,16-13.67,24.92-31.8,23.07-9.87-1.01-19.32-9.3-26.65-15.36-13.9,11.46-24.01,20.47-42.93,12.28-20.45-8.86-14.56-30.44-13.87-48.46,4.12-2.01,8.31-1.88,12.8-1.74.68,8.54-3.25,24.88.35,32.34,3.94,8.15,13,10.38,21.08,7.26,3.93-1.52,15.2-10.07,15.74-14.13.8-6-.57-13.88-.16-20.11l-1.21-1.21c-15.44,3.22-19.88-20.08-5.36-24.15,4.95-1.39,21.12-1.66,26.26-.79,14.79,2.49,11.87,28.49-4.22,24.05-1.17,6.52-3.32,18.06-.39,24.15.96,1.99,11.96,10.41,14.35,11.49,5.4,2.44,15.48,2.31,19.49-2.59.39-.48,2.85-4.92,2.85-5.22v-31.08h.02Z"/>
          <path class="cls-8" d="M307.2,155.83c15.58-3.59,20.11,18.5,5.27,20.64-15.03,2.17-15.38-18.31-5.27-20.64Z"/>
          <path class="cls-8" d="M236.98,155.83c4.86-1.12,11.66,1.92,12.95,6.88,3.54,13.61-16.83,18.92-20.24,5.71-1.24-4.82,2.52-11.49,7.29-12.59h0Z"/>
        </g>
        <path class="cls-8" d="M282.95,259.92v17.43h56.96c4.5,0,8.14,3.64,8.14,8.14s-3.64,8.14-8.14,8.14h-56.96v113.44c35.4-3.94,63.18-33.2,64.92-69.21l-2.21,2.21c-3.17,3.17-8.33,3.17-11.5,0s-3.17-8.33,0-11.5l16.27-16.27c3.17-3.17,8.33-3.17,11.5,0l16.27,16.27c3.18,3.17,3.18,8.32.01,11.5h0c-1.6,1.59-3.67,2.38-5.76,2.38s-4.16-.79-5.76-2.38l-2.54-2.54c-1.71,47.86-41.07,86.3-89.35,86.3s-87.64-38.44-89.35-86.31l-2.54,2.54c-3.17,3.17-8.33,3.17-11.5,0s-3.17-8.33,0-11.5l16.27-16.27c3.17-3.17,8.33-3.17,11.5,0l16.27,16.27c3.17,3.17,3.17,8.33,0,11.5-1.6,1.6-3.67,2.39-5.76,2.39s-4.16-.79-5.76-2.38l-2.21-2.21c1.75,36.01,29.53,65.27,64.93,69.21v-113.44h-56.96c-4.5,0-8.14-3.64-8.14-8.14s3.64-8.14,8.14-8.14h56.96v-17.43"/>
      </g>
      <path class="cls-2" d="M94.9,447.3c22.49,0,22.49,8,44.98,8s22.49-8,44.98-8,22.49,8,44.98,8,22.49-8,44.98-8,22.49,8,44.98,8,22.49-8,44.98-8,22.49,8,44.98,8,22.49-8,44.98-8"/>
    </g>
    <circle class="cls-8" cx="97.76" cy="277.75" r="14"/>
    <circle class="cls-8" cx="452.51" cy="277.75" r="14"/>
  </g>
  <g>
    <g class="cls-4">
      <text class="cls-6" transform="translate(47.49 197.91) rotate(-59.21)"><tspan x="0" y="0">H</tspan></text>
    </g>
    <g class="cls-4">
      <text class="cls-6" transform="translate(69.55 160.65) rotate(-49.46)"><tspan x="0" y="0">U</tspan></text>
    </g>
    <g class="cls-4">
      <text class="cls-6" transform="translate(97.2 128.14) rotate(-39.88)"><tspan x="0" y="0">N</tspan></text>
    </g>
    <g class="cls-4">
      <text class="cls-6" transform="translate(129.23 101.05) rotate(-30.09)"><tspan x="0" y="0">D</tspan></text>
    </g>
    <g class="cls-4">
      <text class="cls-6" transform="translate(167.72 79.01) rotate(-21)"><tspan x="0" y="0">E</tspan></text>
    </g>
    <g class="cls-4">
      <text class="cls-6" transform="translate(200.52 66.11) rotate(-12.37)"><tspan x="0" y="0">B</tspan></text>
    </g>
    <g class="cls-4">
      <text class="cls-6" transform="translate(239.53 57.61) rotate(-3.81)"><tspan x="0" y="0">E</tspan></text>
    </g>
    <g class="cls-4">
      <text class="cls-3" transform="translate(274.82 55.18) rotate(4.09)"><tspan x="0" y="0">T</tspan></text>
    </g>
    <g class="cls-4">
      <text class="cls-6" transform="translate(309.61 57.37) rotate(12.56)"><tspan x="0" y="0">R</tspan></text>
    </g>
    <g class="cls-4">
      <text class="cls-6" transform="translate(348.14 66) rotate(21.14)"><tspan x="0" y="0">E</tspan></text>
    </g>
    <g class="cls-4">
      <text class="cls-6" transform="translate(380.86 78.18) rotate(29.99)"><tspan x="0" y="0">U</tspan></text>
    </g>
    <g class="cls-4">
      <text class="cls-6" transform="translate(417.84 99.36) rotate(39.67)"><tspan x="0" y="0">U</tspan></text>
    </g>
    <g class="cls-4">
      <text class="cls-6" transform="translate(450.76 126.5) rotate(49.25)"><tspan x="0" y="0">N</tspan></text>
    </g>
    <g class="cls-4">
      <text class="cls-6" transform="translate(478.42 158) rotate(59.34)"><tspan x="0" y="0">G</tspan></text>
    </g>
  </g>
  <g class="cls-4">
    <text class="cls-5" transform="translate(116.54 530.71)"><tspan x="0" y="0">~</tspan></text>
    <text class="cls-7" transform="translate(159.45 530.71)"><tspan x="0" y="0" xml:space="preserve"> NORD </tspan></text>
    <text class="cls-5" transform="translate(394.82 530.71)"><tspan x="0" y="0">~</tspan></text>
  </g>
</svg>