<?xml version="1.0" encoding="UTF-8"?>
<svg id="Layer_1" data-name="Layer 1" xmlns="http://www.w3.org/2000/svg" viewBox="0 0 245.78 311.55">
  <defs>
    <style>
      .cls-1 {
        fill: #061a3a;
      }
    </style>
  </defs>
  <g>
    <path class="cls-1" d="M34.68,118.21c-1.8-2.5-.79-10.1-1.27-13.67-2.97-22.2-26.4-30.06-32.04-47.88-3.3-10.43-.69-17.93,8.1-24.1C20.22,25.01,61.83,2.88,73.67,1.5c23.93-2.8,54.67-.98,78.99-.05,6.28.24,12.97-.55,19.18.19,11.18,1.34,35.64,14.1,46.38,19.81,16.66,8.86,34.78,16.23,24.62,38.63-7.59,16.74-25.42,21.66-29.77,42.88-1.39,6.78,1.06,18.03-8.62,17.08-13.59-1.34-19.9-25.51-20.67-36.7-.87-12.67,2.19-27.48.59-39.34-1.8-13.27-18.5-28.36-31.68-29.66-12.4-1.23-57.92-1.25-68.18,2.83-9.54,3.8-21.88,19.52-22.65,29.81-1.73,23.03,6.33,47.07-11.28,67.02-3.22,3.64-11.91,9.71-15.88,4.21ZM61.07,20.79c-1.55-.24-2.76.55-4.07,1.17-9.18,4.35-22.15,12.05-30.89,17.54-1.99,1.25-9.72,5.97-10.12,7.68-1.24,5.27,13.38,19.57,16.81,24.07,6.1,8.03,10.01,15.15,11.33,25.4,1.16-.21,1.62-1.46,2-2.43,5.58-14.17-.38-38.81,2.21-54.29,1.18-7.01,9.12-13.29,12.72-19.15ZM202.33,97.47c1.56-9.92,6.81-20,12.94-27.83,4.2-5.36,21.54-19.52,12.37-26.14l-39.83-21.91c-.53.52,7.39,10.79,8.2,12.37,7.35,14.32.37,40.11,2.29,56.64.13,1.08,2.36,8.78,4.03,6.86Z"/>
    <path class="cls-1" d="M167.62,99.89c3.69.42,11.22-1.53,13.13,2.61,1.57,9.22.8,18.3.52,27.58-5.54,16-13.67,24.92-31.8,23.07-9.87-1.01-19.32-9.3-26.65-15.36-13.9,11.46-24.01,20.47-42.93,12.28-20.45-8.86-14.56-30.44-13.87-48.46,4.12-2.01,8.31-1.88,12.8-1.74.68,8.54-3.25,24.88.35,32.34,3.94,8.15,13,10.38,21.08,7.26,3.93-1.52,15.2-10.07,15.74-14.13.8-6-.57-13.88-.16-20.11l-1.21-1.21c-15.44,3.22-19.88-20.08-5.36-24.15,4.95-1.39,21.12-1.66,26.26-.79,14.79,2.49,11.87,28.49-4.22,24.05-1.17,6.52-3.32,18.06-.39,24.15.96,1.99,11.96,10.41,14.35,11.49,5.4,2.44,15.48,2.31,19.49-2.59.39-.48,2.85-4.92,2.85-5.22v-31.08Z"/>
    <path class="cls-1" d="M155.27,43.56c15.58-3.59,20.11,18.5,5.27,20.64-15.03,2.17-15.38-18.31-5.27-20.64Z"/>
    <path class="cls-1" d="M85.05,43.56c4.86-1.12,11.66,1.92,12.95,6.88,3.54,13.61-16.83,18.92-20.24,5.71-1.24-4.82,2.52-11.49,7.29-12.59Z"/>
  </g>
  <path class="cls-1" d="M131.02,147.65v17.43h56.96c4.5,0,8.14,3.64,8.14,8.14s-3.64,8.14-8.14,8.14h-56.96v113.44c35.4-3.94,63.18-33.2,64.92-69.21l-2.21,2.21c-3.17,3.17-8.33,3.17-11.5,0-3.17-3.17-3.17-8.33,0-11.5l16.27-16.27c3.17-3.17,8.33-3.17,11.5,0l16.27,16.27c3.18,3.17,3.18,8.32.01,11.5h0c-1.6,1.59-3.67,2.38-5.76,2.38s-4.16-.79-5.76-2.38l-2.54-2.54c-1.71,47.86-41.07,86.3-89.35,86.3s-87.64-38.44-89.35-86.31l-2.54,2.54c-3.17,3.17-8.33,3.17-11.5,0-3.17-3.17-3.17-8.33,0-11.5l16.27-16.27c3.17-3.17,8.33-3.17,11.5,0l16.27,16.27c3.17,3.17,3.17,8.33,0,11.5-1.6,1.6-3.67,2.39-5.76,2.39s-4.16-.79-5.76-2.38l-2.21-2.21c1.75,36.01,29.53,65.27,64.93,69.21v-113.44h-56.96c-4.5,0-8.14-3.64-8.14-8.14s3.64-8.14,8.14-8.14h56.96v-17.43"/>
</svg>